<svg width="184" height="121" viewBox="0 0 184 121" fill="none" xmlns="http://www.w3.org/2000/svg">
<path d="M38.4481 38.1702C34.9478 38.1702 31.7276 37.3477 28.7874 35.7026C25.8822 34.0574 23.572 31.7823 21.8569 28.8771C20.1417 25.9719 19.2842 22.6991 19.2842 19.0589C19.2842 15.4186 20.1417 12.1459 21.8569 9.24065C23.572 6.33544 25.8822 4.07778 28.7874 2.46766C31.7276 0.822543 34.9478 -1.52588e-05 38.4481 -1.52588e-05C41.9483 -1.52588e-05 45.1511 0.822543 48.0563 2.46766C50.9615 4.07778 53.2541 6.33544 54.9343 9.24065C56.6494 12.1459 57.5069 15.4186 57.5069 19.0589C57.5069 22.6991 56.6494 25.9719 54.9343 28.8771C53.2541 31.7823 50.944 34.0574 48.0038 35.7026C45.0985 37.3477 41.9133 38.1702 38.4481 38.1702ZM38.4481 27.302C40.7582 27.302 42.5434 26.5669 43.8035 25.0968C45.0635 23.5917 45.6936 21.579 45.6936 19.0589C45.6936 16.5037 45.0635 14.491 43.8035 13.0209C42.5434 11.5158 40.7582 10.7633 38.4481 10.7633C36.1029 10.7633 34.3003 11.5158 33.0402 13.0209C31.7801 14.491 31.15 16.5037 31.15 19.0589C31.15 21.579 31.7801 23.5917 33.0402 25.0968C34.3003 26.5669 36.1029 27.302 38.4481 27.302Z" fill="white"/>
<path d="M96.3118 37.8027H84.6559L72.3175 19.1114V37.8027H60.6617V0.63003H72.3175L84.6559 19.6364V0.63003H96.3118V37.8027Z" fill="white"/>
<path d="M111.921 0.63003V21.579C111.921 23.2942 112.289 24.6593 113.024 25.6743C113.794 26.6544 115.019 27.1444 116.699 27.1444C118.379 27.1444 119.622 26.6544 120.427 25.6743C121.232 24.6593 121.634 23.2942 121.634 21.579V0.63003H133.238V21.579C133.238 25.1143 132.502 28.142 131.032 30.6622C129.562 33.1474 127.55 35.02 124.994 36.2801C122.439 37.5402 119.587 38.1702 116.436 38.1702C113.286 38.1702 110.486 37.5402 108.036 36.2801C105.621 35.02 103.73 33.1474 102.365 30.6622C101 28.177 100.318 25.1493 100.318 21.579V0.63003H111.921Z" fill="white"/>
<path d="M151.758 38.1702C147.313 38.1702 143.638 37.1377 140.732 35.0725C137.862 32.9724 136.305 29.9096 136.06 25.8844H148.45C148.626 28.0195 149.571 29.0871 151.286 29.0871C151.916 29.0871 152.441 28.9471 152.861 28.6671C153.316 28.352 153.543 27.8795 153.543 27.2495C153.543 26.3744 153.071 25.6743 152.126 25.1493C151.181 24.5893 149.711 23.9592 147.715 23.2592C145.335 22.4191 143.358 21.5965 141.783 20.7915C140.242 19.9864 138.912 18.8138 137.792 17.2737C136.672 15.7336 136.13 13.756 136.165 11.3408C136.165 8.92563 136.777 6.87798 138.002 5.19786C139.262 3.48274 140.96 2.18764 143.095 1.31258C145.265 0.437516 147.698 -1.52588e-05 150.393 -1.52588e-05C154.943 -1.52588e-05 158.549 1.05006 161.209 3.15021C163.904 5.25036 165.322 8.20808 165.462 12.0234H152.913C152.878 10.9733 152.616 10.2207 152.126 9.76569C151.636 9.31066 151.041 9.08314 150.341 9.08314C149.851 9.08314 149.448 9.25815 149.133 9.60818C148.818 9.9232 148.661 10.3782 148.661 10.9733C148.661 11.8133 149.116 12.5134 150.026 13.0734C150.971 13.5985 152.458 14.246 154.488 15.0161C156.834 15.8911 158.759 16.7312 160.264 17.5363C161.804 18.3413 163.134 19.4614 164.254 20.8965C165.374 22.3316 165.934 24.1342 165.934 26.3044C165.934 28.5795 165.374 30.6272 164.254 32.4473C163.134 34.2325 161.506 35.6326 159.371 36.6476C157.236 37.6627 154.698 38.1702 151.758 38.1702Z" fill="white"/>
<path d="M17.6936 58.1434V77.005H35.2279V91.67H17.6936V109.268H46.1952V121H0V44.0363H183.198V58.1434H17.6936Z" fill="#F0D200"/>
<path d="M77.0356 106.044H69.1292H53.1858C53.1858 106.044 51.5312 114.58 39.7992 110.177C28.0671 105.773 57.5088 58.1434 57.5088 58.1434H77.9123L98.4752 114.572H79.8251L77.0356 106.044ZM72.7317 92.7336L67.6308 77.0325L62.53 92.7336H72.7317Z" fill="white"/>
<path d="M136.336 58.1434V72.1708H121.352V114.572H103.659V72.1708H88.8344V58.1434H136.336Z" fill="white"/>
<path d="M162.396 116.086C155.648 116.086 150.068 114.519 145.658 111.384C141.301 108.196 138.937 103.546 138.565 97.436H157.374C157.64 100.677 159.075 102.298 161.678 102.298C162.635 102.298 163.432 102.085 164.069 101.66C164.76 101.182 165.105 100.465 165.105 99.5082C165.105 98.1799 164.388 97.1172 162.953 96.3202C161.519 95.47 159.287 94.5136 156.259 93.4509C152.645 92.1757 149.643 90.9271 147.252 89.705C144.914 88.4829 142.895 86.7029 141.195 84.365C139.495 82.0271 138.671 79.0251 138.724 75.3588C138.724 71.6925 139.654 68.5842 141.514 66.0338C143.427 63.4302 146.004 61.4642 149.245 60.1359C152.539 58.8075 156.232 58.1434 160.323 58.1434C167.231 58.1434 172.704 59.7374 176.742 62.9254C180.833 66.1135 182.985 70.6033 183.198 76.3949H164.149C164.096 74.8009 163.697 73.6585 162.953 72.9678C162.21 72.277 161.306 71.9316 160.244 71.9316C159.5 71.9316 158.889 72.1973 158.411 72.7287C157.932 73.2069 157.693 73.8976 157.693 74.8009C157.693 76.0761 158.384 77.1388 159.765 77.9889C161.2 78.7859 163.458 79.7689 166.54 80.9379C170.1 82.2662 173.022 83.5414 175.307 84.7635C177.645 85.9856 179.664 87.6859 181.364 89.8644C183.065 92.0429 183.915 94.7793 183.915 98.0736C183.915 101.527 183.065 104.636 181.364 107.399C179.664 110.108 177.193 112.234 173.952 113.775C170.711 115.316 166.859 116.086 162.396 116.086Z" fill="white"/>
</svg>
